<svg xmlns="http://www.w3.org/2000/svg" viewBox="0 0 236.57 188.35"><defs><style>.cls-1{fill:#585857;}.cls-1,.cls-2{stroke:#585857;stroke-miterlimit:10;}.cls-2{fill:#595958;}</style></defs><title>Asset 3</title><g id="Layer_2" data-name="Layer 2"><g id="Layer_2-2" data-name="Layer 2"><circle class="cls-1" cx="117.79" cy="60.15" r="33"/><circle class="cls-1" cx="43.14" cy="33.5" r="33"/><circle class="cls-1" cx="193.43" cy="33.5" r="33"/><path class="cls-2" d="M69.47,159.92c-1.22,1.11-2.22.94-13.34,1.07-9.9.11-9.51.25-14.68.19-5.86-.07-4.77-.22-13.34-.45-9.64-.25-10.26,0-11.33-.89-4.15-3.3-.36-11-1.08-21.66-.64-9.47-4.07-10.42-8.92-24C6,112-5.27,79.7,4.39,73c1.77-1.24,5.21-1.29,12.08-1.37,7.81-.09,12,1.15,15.32-1.74,1.5-1.32,1.72-2.5,3.51-3.12,2.34-.81,3.37.8,7.15.79,3.63,0,4.36-1.29,6.77-.7s2.64,2.2,4.9,3.7c3.44,2.28,6.91,1.31,13,1,8.49-.42,12.74-.62,15.33,1.32,8.7,6.53-2.15,36.33-4.33,42.33-4.91,13.48-8.22,15.8-8.36,25C69.61,149.94,73.19,156.55,69.47,159.92Z"/><path class="cls-2" d="M219.76,159.92c-1.22,1.11-2.22.94-13.34,1.07-9.9.11-9.51.25-14.68.19-5.86-.07-4.77-.22-13.34-.45-9.64-.25-10.26,0-11.33-.89-4.15-3.3-.36-11-1.08-21.66-.64-9.47-4.07-10.42-8.92-24C156.3,112,145,79.7,154.68,73c1.77-1.24,5.21-1.29,12.08-1.37,7.81-.09,12,1.15,15.32-1.74,1.5-1.32,1.72-2.5,3.51-3.12,2.34-.81,3.37.8,7.15.79,3.63,0,4.36-1.29,6.77-.7s2.64,2.2,4.9,3.7c3.44,2.28,6.91,1.31,13,1,8.49-.42,12.74-.62,15.33,1.32,8.7,6.53-2.15,36.33-4.33,42.33-4.91,13.48-8.22,15.8-8.36,25C219.89,149.94,223.48,156.55,219.76,159.92Z"/><path class="cls-2" d="M144.81,186.57c-1.22,1.11-2.22.94-13.34,1.07-9.9.11-9.51.25-14.68.19-5.86-.07-4.77-.22-13.34-.45-9.64-.25-10.26,0-11.33-.89-4.15-3.3-.36-11-1.08-21.66-.64-9.47-4.07-10.42-8.92-24-.77-2.17-12.06-34.48-2.4-41.22,1.77-1.24,5.21-1.29,12.08-1.37,7.81-.09,12,1.15,15.32-1.74,1.5-1.32,1.72-2.5,3.51-3.12,2.34-.81,3.37.8,7.15.79,3.63,0,4.36-1.29,6.77-.7s2.64,2.2,4.9,3.7c3.44,2.28,6.91,1.31,13,1,8.49-.42,12.74-.62,15.33,1.32,8.7,6.53-2.15,36.33-4.33,42.33-4.91,13.48-8.22,15.8-8.36,25C144.94,176.6,148.53,183.2,144.81,186.57Z"/></g></g></svg>