<svg xmlns="http://www.w3.org/2000/svg" viewBox="0 0 185.48 174.76"><defs><style>.cls-1{fill:#585857;}.cls-2,.cls-3{fill:#f2f2f2;}.cls-2{stroke:#f6f6f6;stroke-miterlimit:10;}</style></defs><title>Asset 1</title><g id="Layer_2" data-name="Layer 2"><g id="Layer_3" data-name="Layer 3"><circle class="cls-1" cx="72.33" cy="73.51" r="51.5"/><rect class="cls-1" x="4.17" y="34.7" width="25.33" height="21.54" rx="6.33" ry="6.33" transform="translate(20.72 -2.86) rotate(24.91)"/><rect class="cls-1" x="39.62" y="2.74" width="25.33" height="22.06" rx="6.33" ry="6.33" transform="translate(50.08 -40.26) rotate(72.91)"/><rect class="cls-1" x="87.66" y="6.92" width="25.33" height="21.46" rx="6.33" ry="6.33" transform="translate(162.73 -62.86) rotate(117.8)"/><rect class="cls-1" x="117.25" y="42.45" width="25.33" height="22.5" rx="6.33" ry="6.33" transform="matrix(0.96, -0.29, 0.29, 0.96, -10.04, 40.56)"/><rect class="cls-1" x="115.85" y="89.7" width="25.33" height="22" rx="6.33" ry="6.33" transform="translate(54.38 -44.77) rotate(24.91)"/><rect class="cls-1" x="78.26" y="121.7" width="25.33" height="21.48" rx="6.33" ry="6.33" transform="translate(190.79 6.6) rotate(72.91)"/><rect class="cls-1" x="29.92" y="118.15" width="25.33" height="22" rx="6.33" ry="6.33" transform="translate(175.72 156.84) rotate(120)"/><rect class="cls-1" x="1.08" y="81.47" width="25.33" height="21.95" rx="6.33" ry="6.33" transform="translate(-26.57 8.13) rotate(-17.09)"/><ellipse class="cls-2" cx="127.54" cy="115.84" rx="39.65" ry="39.97" transform="translate(-35.11 59) rotate(-22.98)"/><path class="cls-3" d="M84.85,104.31,75.09,104a4.87,4.87,0,0,0-5,4.73l-.21,6.87a5,5,0,0,0,4.73,5.09l9.76.36a4.87,4.87,0,0,0,5-4.73l.21-6.87A5,5,0,0,0,84.85,104.31Z"/><path class="cls-3" d="M104.88,77.45l-6.31-7.53a4.88,4.88,0,0,0-6.88-.62L86.16,74a4.94,4.94,0,0,0-.57,6.92l6.31,7.53a4.88,4.88,0,0,0,6.88.62l5.53-4.67A4.94,4.94,0,0,0,104.88,77.45Z"/><path class="cls-3" d="M138.31,73.12l.79-9.78A5,5,0,0,0,134.63,58l-6.76-.59a4.87,4.87,0,0,0-5.26,4.46l-.79,9.78A5,5,0,0,0,126.28,77l6.76.59A4.87,4.87,0,0,0,138.31,73.12Z"/><path class="cls-3" d="M160.48,74.52,153,80.82a4.94,4.94,0,0,0-.57,6.92l4.9,5.85a4.88,4.88,0,0,0,6.88.62l7.45-6.3a4.94,4.94,0,0,0,.57-6.92l-4.9-5.85A4.88,4.88,0,0,0,160.48,74.52Z"/><path class="cls-3" d="M180.75,110l-9.76-.36a4.87,4.87,0,0,0-5,4.73l-.22,7.23a5,5,0,0,0,4.73,5.09l9.76.36a4.87,4.87,0,0,0,5-4.73l.22-7.23A5,5,0,0,0,180.75,110Z"/><path class="cls-3" d="M168.4,150.77l-6.31-7.53a4.88,4.88,0,0,0-6.88-.62L150,147a4.94,4.94,0,0,0-.57,6.92l6.31,7.53a4.88,4.88,0,0,0,6.88.62l5.19-4.38A4.94,4.94,0,0,0,168.4,150.77Z"/><path class="cls-3" d="M131.16,170.47l1.16-9.74a5,5,0,0,0-4.27-5.48l-7.14-.9a4.87,4.87,0,0,0-5.43,4.26l-1.16,9.74a5,5,0,0,0,4.27,5.48l7.14.9A4.87,4.87,0,0,0,131.16,170.47Z"/><path class="cls-3" d="M90,137.3l-7.45,6.3a4.94,4.94,0,0,0-.57,6.92L86.62,156a4.88,4.88,0,0,0,6.88.62l7.45-6.3a4.94,4.94,0,0,0,.57-6.92l-4.63-5.52A4.88,4.88,0,0,0,90,137.3Z"/></g></g></svg>
